<svg width="30" height="30" viewBox="0 0 30 30" fill="none" xmlns="http://www.w3.org/2000/svg">
<g clip-path="url(#clip0_1813_948)">
<path d="M25.6636 0H4.33636C3.18673 0.00144336 2.0846 0.458772 1.27169 1.27169C0.458772 2.0846 0.00144336 3.18673 0 4.33636V25.6636C0.00144336 26.8133 0.458772 27.9154 1.27169 28.7283C2.0846 29.5412 3.18673 29.9986 4.33636 30H25.6636C26.8133 29.9986 27.9154 29.5412 28.7283 28.7283C29.5412 27.9154 29.9986 26.8133 30 25.6636V4.33636C29.9986 3.18673 29.5412 2.0846 28.7283 1.27169C27.9154 0.458772 26.8133 0.00144336 25.6636 0ZM23.1818 9.54545H27.2727V13.6364H23.1818V9.54545ZM20.4545 13.6364H9.54545V2.72727H20.4545V13.6364ZM6.81818 13.6364H2.72727V9.54545H6.81818V13.6364ZM2.72727 16.3636H6.81818V20.4545H2.72727V16.3636ZM9.54545 16.3636H20.4545V27.2727H9.54545V16.3636ZM23.1818 16.3636H27.2727V20.4545H23.1818V16.3636ZM27.2727 4.33636V6.81818H23.1818V2.72727H25.6636C26.0903 2.72763 26.4994 2.89728 26.801 3.19896C27.1027 3.50065 27.2724 3.90972 27.2727 4.33636ZM4.33636 2.72727H6.81818V6.81818H2.72727V4.33636C2.72763 3.90972 2.89728 3.50065 3.19896 3.19896C3.50065 2.89728 3.90972 2.72763 4.33636 2.72727ZM2.72727 25.6636V23.1818H6.81818V27.2727H4.33636C3.90972 27.2724 3.50065 27.1027 3.19896 26.801C2.89728 26.4994 2.72763 26.0903 2.72727 25.6636ZM25.6636 27.2727H23.1818V23.1818H27.2727V25.6636C27.2724 26.0903 27.1027 26.4994 26.801 26.801C26.4994 27.1027 26.0903 27.2724 25.6636 27.2727Z" fill="white"/>
</g>
<defs>
<clipPath id="clip0_1813_948">
<rect width="30" height="30" fill="white"/>
</clipPath>
</defs>
</svg>
