<svg width="30" height="20" viewBox="0 0 30 20" fill="none" xmlns="http://www.w3.org/2000/svg">
<g clip-path="url(#clip0_1813_942)">
<path d="M29.3225 2.63875C29.1183 2.53353 28.8891 2.48662 28.66 2.50316C28.4308 2.5197 28.2107 2.59905 28.0238 2.7325L21.25 7.57125V3.75C21.25 2.75544 20.8549 1.80161 20.1517 1.09835C19.4484 0.395088 18.4946 0 17.5 0H3.75C2.75544 0 1.80161 0.395088 1.09835 1.09835C0.395088 1.80161 0 2.75544 0 3.75L0 16.25C0 17.2446 0.395088 18.1984 1.09835 18.9017C1.80161 19.6049 2.75544 20 3.75 20H17.5C18.4946 20 19.4484 19.6049 20.1517 18.9017C20.8549 18.1984 21.25 17.2446 21.25 16.25V12.4287L28.0238 17.2662C28.2351 17.4189 28.4893 17.5007 28.75 17.5C28.949 17.4995 29.145 17.4524 29.3225 17.3625C29.5268 17.2573 29.6981 17.0977 29.8176 16.9015C29.9371 16.7052 30.0002 16.4798 30 16.25V3.75C30 3.52042 29.9368 3.29527 29.8173 3.09924C29.6978 2.90322 29.5266 2.7439 29.3225 2.63875ZM18.75 16.25C18.75 16.5815 18.6183 16.8995 18.3839 17.1339C18.1495 17.3683 17.8315 17.5 17.5 17.5H3.75C3.41848 17.5 3.10054 17.3683 2.86612 17.1339C2.6317 16.8995 2.5 16.5815 2.5 16.25V3.75C2.5 3.41848 2.6317 3.10054 2.86612 2.86612C3.10054 2.6317 3.41848 2.5 3.75 2.5H17.5C17.8315 2.5 18.1495 2.6317 18.3839 2.86612C18.6183 3.10054 18.75 3.41848 18.75 3.75V16.25ZM27.5 13.8213L22.1513 10L27.5 6.17875V13.8213Z" fill="white"/>
</g>
<defs>
<clipPath id="clip0_1813_942">
<rect width="30" height="20" fill="white"/>
</clipPath>
</defs>
</svg>
