<svg width="30" height="30" viewBox="0 0 30 30" fill="none" xmlns="http://www.w3.org/2000/svg">
<g clip-path="url(#clip0_1813_944)">
<path d="M15 0C12.0333 0 9.13319 0.879734 6.66645 2.52796C4.19972 4.17618 2.27713 6.51886 1.14181 9.25975C0.00649932 12.0006 -0.290551 15.0166 0.288228 17.9264C0.867006 20.8361 2.29562 23.5088 4.39341 25.6066C6.49119 27.7044 9.16394 29.133 12.0737 29.7118C14.9834 30.2906 17.9994 29.9935 20.7403 28.8582C23.4812 27.7229 25.8238 25.8003 27.4721 23.3336C29.1203 20.8668 30 17.9667 30 15C29.9953 11.0232 28.4135 7.21061 25.6014 4.39858C22.7894 1.58655 18.9768 0.00469155 15 0ZM15 27.2727C12.5727 27.2727 10.1999 26.5529 8.18164 25.2044C6.16341 23.8559 4.59038 21.9391 3.66149 19.6966C2.73259 17.454 2.48955 14.9864 2.9631 12.6057C3.43664 10.225 4.60551 8.03824 6.32188 6.32187C8.03825 4.6055 10.225 3.43664 12.6057 2.96309C14.9864 2.48954 17.454 2.73258 19.6966 3.66148C21.9391 4.59037 23.8559 6.1634 25.2044 8.18164C26.553 10.1999 27.2727 12.5727 27.2727 15C27.2691 18.2538 25.975 21.3733 23.6742 23.6741C21.3734 25.9749 18.2538 27.2691 15 27.2727Z" fill="white"/>
<path d="M21.2115 13.8655L13.0296 8.41094C12.8243 8.27392 12.5856 8.19522 12.339 8.18325C12.0924 8.17127 11.8472 8.22646 11.6295 8.34293C11.4118 8.45939 11.2298 8.63277 11.103 8.84456C10.9761 9.05635 10.9091 9.2986 10.9092 9.54548V20.4546C10.9091 20.7014 10.9761 20.9437 11.103 21.1555C11.2298 21.3673 11.4118 21.5407 11.6295 21.6571C11.8472 21.7736 12.0924 21.8288 12.339 21.8168C12.5856 21.8048 12.8243 21.7261 13.0296 21.5891L21.2115 16.1346C21.3982 16.01 21.5513 15.8413 21.6573 15.6434C21.7632 15.4455 21.8186 15.2245 21.8186 15C21.8186 14.7756 21.7632 14.5546 21.6573 14.3566C21.5513 14.1587 21.3982 13.99 21.2115 13.8655ZM13.6365 17.9073V12.0941L18.0001 15L13.6365 17.9073Z" fill="white"/>
</g>
<defs>
<clipPath id="clip0_1813_944">
<rect width="30" height="30" fill="white"/>
</clipPath>
</defs>
</svg>
